<svg width="24" height="24" viewBox="0 0 24 24" fill="none" xmlns="http://www.w3.org/2000/svg">
<path d="M4.63477 22.8516C2.7207 22.8516 1.76367 22.2266 1.76367 20.9766C1.76367 20.2109 1.99805 19.3945 2.4668 18.5273C2.93555 17.6602 3.61133 16.8438 4.49414 16.0781C5.38477 15.3047 6.45898 14.6758 7.7168 14.1914C8.98242 13.707 10.4121 13.4648 12.0059 13.4648C13.5918 13.4648 15.0137 13.707 16.2715 14.1914C17.5371 14.6758 18.6113 15.3047 19.4941 16.0781C20.3848 16.8438 21.0645 17.6602 21.5332 18.5273C22.002 19.3945 22.2363 20.2109 22.2363 20.9766C22.2363 22.2266 21.2793 22.8516 19.3652 22.8516H4.63477ZM4.08398 21.082H19.9277C20.0762 21.082 20.1816 21.0586 20.2441 21.0117C20.3145 20.9648 20.3496 20.8789 20.3496 20.7539C20.3496 20.2773 20.166 19.7266 19.7988 19.1016C19.4395 18.4688 18.9043 17.8594 18.1934 17.2734C17.4824 16.6875 16.6074 16.2031 15.5684 15.8203C14.5371 15.4297 13.3496 15.2344 12.0059 15.2344C10.6621 15.2344 9.4707 15.4297 8.43164 15.8203C7.39258 16.2031 6.51758 16.6875 5.80664 17.2734C5.0957 17.8594 4.55664 18.4688 4.18945 19.1016C3.83008 19.7266 3.65039 20.2773 3.65039 20.7539C3.65039 20.8789 3.68164 20.9648 3.74414 21.0117C3.81445 21.0586 3.92773 21.082 4.08398 21.082ZM12.0059 12.0117C11.0762 12.0117 10.2285 11.7656 9.46289 11.2734C8.69727 10.7734 8.08398 10.1094 7.62305 9.28125C7.16992 8.44531 6.94336 7.52734 6.94336 6.52734C6.94336 5.53516 7.16992 4.63281 7.62305 3.82031C8.08398 3.00781 8.69727 2.35938 9.46289 1.875C10.2285 1.39062 11.0762 1.14844 12.0059 1.14844C12.9434 1.14844 13.7949 1.38672 14.5605 1.86328C15.3262 2.33984 15.9355 2.98438 16.3887 3.79688C16.8418 4.60156 17.0684 5.50391 17.0684 6.50391C17.0684 7.51172 16.8379 8.43359 16.377 9.26953C15.9238 10.0977 15.3145 10.7617 14.5488 11.2617C13.7832 11.7617 12.9355 12.0117 12.0059 12.0117ZM12.0059 10.2422C12.584 10.2422 13.1113 10.0742 13.5879 9.73828C14.0723 9.40234 14.459 8.95312 14.748 8.39062C15.0371 7.82031 15.1816 7.19141 15.1816 6.50391C15.1816 5.82422 15.0371 5.21484 14.748 4.67578C14.4668 4.12891 14.084 3.69922 13.5996 3.38672C13.123 3.07422 12.5918 2.91797 12.0059 2.91797C11.4277 2.91797 10.8965 3.07812 10.4121 3.39844C9.93555 3.71875 9.55273 4.15234 9.26367 4.69922C8.97461 5.23828 8.83008 5.84766 8.83008 6.52734C8.83008 7.21484 8.97461 7.83984 9.26367 8.40234C9.56055 8.96484 9.94727 9.41406 10.4238 9.75C10.9082 10.0781 11.4355 10.2422 12.0059 10.2422Z" fill="white"/>
</svg>
