<svg width="231" height="55" viewBox="0 0 231 55" fill="none" xmlns="http://www.w3.org/2000/svg">
<path d="M54.3453 54.123C49.842 54.123 47.5904 53.6168 47.5904 52.6046L45.9967 22.1623L36.7369 52.9842C36.5345 53.5914 34.8143 53.895 31.5759 53.895C28.3376 53.895 26.6678 53.6168 26.5666 53.0602L17.0034 21.8587L15.9408 52.149C15.8902 52.9082 14.9289 53.4398 13.0567 53.7434C11.1846 53.9964 9.616 54.123 8.351 54.123C7.13664 54.123 5.94758 54.047 4.78379 53.895C2.35505 53.5409 1.16598 52.9082 1.21658 51.9974L2.96224 2.65196C2.96224 1.43731 6.04875 0.829983 12.2218 0.829983C14.0434 0.829983 16.2697 0.981815 18.9009 1.28548C21.532 1.53853 22.9994 2.06994 23.303 2.87971L31.8036 26.7932L39.2416 2.8038C39.697 1.48792 43.1882 0.829983 49.7155 0.829983C51.5876 0.829983 53.8141 0.981815 56.3947 1.28548C59.0259 1.53853 60.3414 2.01933 60.3414 2.72788L62.5425 52.5286C62.5425 53.0853 61.5556 53.4903 59.5824 53.7434C57.6089 53.9964 55.8633 54.123 54.3453 54.123ZM90.1865 54.8062C83.1027 54.8062 77.3093 52.4781 72.8057 47.8218C68.353 43.1656 66.1268 36.384 66.1268 27.4765C66.1268 18.5184 68.3785 11.7366 72.8817 7.13101C77.4358 2.52544 83.2797 0.222656 90.4144 0.222656C97.5993 0.222656 103.393 2.50013 107.795 7.05509C112.197 11.5594 114.398 18.4172 114.398 27.6283C114.398 36.7888 112.146 43.6212 107.643 48.1254C103.14 52.5792 97.3212 54.8062 90.1865 54.8062ZM90.2624 14.7985C87.8338 14.7985 85.7843 15.9119 84.1147 18.1388C82.4956 20.3657 81.686 23.5035 81.686 27.5524C81.686 31.5506 82.4701 34.6377 84.0387 36.8142C85.6073 38.9398 87.6568 40.0026 90.1865 40.0026C92.7671 40.0026 94.8416 38.9144 96.4102 36.7382C98.0293 34.5621 98.8389 31.4494 98.8389 27.4005C98.8389 23.3517 98.0042 20.2391 96.3342 18.0629C94.7151 15.8866 92.6911 14.7985 90.2624 14.7985ZM120.037 14.7226C119.176 14.7226 118.569 13.5585 118.215 11.2304C118.063 10.2689 117.987 9.20603 117.987 8.04201C117.987 6.87795 118.114 5.6633 118.367 4.39802C118.822 2.06994 119.581 0.905899 120.644 0.905899H148.726C151.813 0.905899 153.811 3.71478 154.722 9.33257C154.924 10.5472 155.026 11.4329 155.026 11.9896L137.265 38.9398H151.155C151.206 38.9398 151.256 38.9398 151.307 38.9398C152.42 38.9398 153.204 40.1542 153.66 42.5838C153.862 43.7477 153.963 44.9625 153.963 46.2278C153.963 47.4928 153.811 48.8341 153.508 50.2514C152.951 52.7817 152.091 54.047 150.927 54.047H121.403C120.947 54.047 120.113 52.5286 118.898 49.4922C117.734 46.4049 117.153 44.4814 117.153 43.7226C117.153 42.9634 117.228 42.4824 117.38 42.2802L135.14 14.7226H120.037ZM165.839 40.9894V13.9634H160.451C159.59 13.9634 158.983 12.8753 158.629 10.699C158.477 9.63621 158.401 8.5481 158.401 7.43465C158.401 6.32124 158.477 5.2331 158.629 4.17029C158.983 1.99403 159.59 0.905899 160.451 0.905899H185.952C186.812 0.905899 187.394 1.99403 187.698 4.17029C187.9 5.2331 188.002 6.32124 188.002 7.43465C188.002 8.5481 187.9 9.63621 187.698 10.699C187.394 12.8753 186.812 13.9634 185.952 13.9634H180.867V40.9894H186.18C187.04 40.9894 187.647 42.0777 188.002 44.2538C188.204 45.3166 188.305 46.4049 188.305 47.5182C188.305 48.6316 188.204 49.7198 188.002 50.7826C187.647 52.9588 187.04 54.047 186.18 54.047H160.602C159.742 54.047 159.16 52.9588 158.857 50.7826C158.654 49.7198 158.553 48.6316 158.553 47.5182C158.553 46.4049 158.654 45.3166 158.857 44.2538C159.16 42.0777 159.742 40.9894 160.602 40.9894H165.839ZM199.972 54.199C195.367 54.199 193.065 53.6928 193.065 52.6806V3.48705C193.065 1.76628 193.849 0.905899 195.418 0.905899H208.776C216.264 0.905899 221.653 2.44952 224.942 5.53677C228.282 8.62402 229.951 13.1031 229.951 18.9739C229.951 23.8325 228.383 28.2862 225.246 32.335C223.677 34.3595 221.375 35.979 218.339 37.1938C215.303 38.4082 211.761 39.0158 207.713 39.0158V52.6046C207.713 53.2118 206.752 53.642 204.829 53.895C202.957 54.0975 201.338 54.199 199.972 54.199ZM207.713 14.1152V26.11H208.7C210.471 26.11 211.964 25.5532 213.178 24.4398C214.392 23.3264 215 21.7574 215 19.733C215 17.7086 214.569 16.2662 213.709 15.4058C212.9 14.5455 211.432 14.1152 209.307 14.1152H207.713Z" fill="#3C6CE5"/>
</svg>
