<svg width="342" height="52" viewBox="0 0 342 52" fill="none" xmlns="http://www.w3.org/2000/svg">
<rect width="342" height="52" rx="12" fill="#FEE500"/>
<path d="M94.3413 36C93.9662 36 93.7269 35.8785 93.6235 35.6355C93.5265 35.3989 93.5717 35.1591 93.7593 34.9161C93.8821 34.7562 94.0567 34.542 94.2831 34.2734C94.5159 34.0112 94.7551 33.7234 95.0009 33.4101C95.2466 33.0967 95.46 32.793 95.6411 32.4988C95.6799 32.4285 95.6864 32.3613 95.6605 32.2974C95.6411 32.227 95.5958 32.1727 95.5247 32.1343C94.49 31.5843 93.5944 30.9289 92.8377 30.1679C92.0876 29.4005 91.5088 28.5564 91.1014 27.6355C90.7005 26.7146 90.5 25.7426 90.5 24.7194C90.5 23.5108 90.7813 22.3789 91.3439 21.3237C91.913 20.2686 92.6987 19.3445 93.7011 18.5516C94.7099 17.7522 95.8804 17.1287 97.2125 16.6811C98.5447 16.227 99.9738 16 101.5 16C103.026 16 104.455 16.227 105.787 16.6811C107.12 17.1287 108.287 17.7522 109.289 18.5516C110.298 19.3445 111.084 20.2686 111.646 21.3237C112.215 22.3789 112.5 23.5108 112.5 24.7194C112.5 25.6723 112.322 26.5835 111.966 27.4532C111.611 28.3229 111.097 29.1223 110.424 29.8513C109.752 30.5739 108.937 31.2038 107.98 31.741C107.029 32.2782 105.956 32.6938 104.759 32.988C103.563 33.2822 102.266 33.4293 100.869 33.4293C100.811 33.4293 100.75 33.4261 100.685 33.4197C100.621 33.4197 100.556 33.4165 100.491 33.4101C100.427 33.4101 100.359 33.4229 100.287 33.4484C100.216 33.474 100.139 33.5156 100.055 33.5731C99.6408 33.8673 99.1655 34.1551 98.6287 34.4365C98.0985 34.7242 97.5585 34.9864 97.0088 35.223C96.4656 35.4596 95.958 35.6483 95.4859 35.789C95.0138 35.9297 94.6323 36 94.3413 36Z" fill="black"/>
<path d="M135.12 19.62C135.1 25.72 132.32 29.8 127.22 32.48L125.9 31C128.48 29.82 130.64 27.92 131.86 25.46L126.64 26.02L126.32 24.24L132.54 23.78C132.76 22.98 132.92 22.16 132.98 21.28H127.22V19.62H135.12ZM139.94 17.76V24.72H142.7V26.42H139.94V35.58H137.88V17.76H139.94ZM152.425 19.62C152.405 25.72 149.625 29.8 144.525 32.48L143.205 31C145.785 29.82 147.945 27.92 149.165 25.46L143.945 26.02L143.625 24.24L149.845 23.78C150.065 22.98 150.225 22.16 150.285 21.28H144.525V19.62H152.425ZM157.245 17.76V24.72H160.005V26.42H157.245V35.58H155.185V17.76H157.245ZM176.809 33.3H160.709V31.66H167.709V28.62C164.409 28.3 162.309 26.42 162.309 23.76C162.309 20.82 164.889 18.86 168.749 18.86C172.669 18.86 175.229 20.82 175.229 23.76C175.229 26.44 173.089 28.32 169.749 28.64V31.66H176.809V33.3ZM173.169 23.78C173.169 21.88 171.429 20.54 168.749 20.54C166.129 20.54 164.369 21.88 164.369 23.78C164.369 25.66 166.129 26.94 168.749 26.94C171.409 26.94 173.169 25.66 173.169 23.78ZM192.554 28.7H187.054V31.68H194.114V33.32H178.014V31.68H185.014V28.7H180.074V22.94H189.994V20.64H180.014V19H192.034V24.6H182.134V27.04H192.554V28.7ZM215.113 28.7H209.613V31.68H216.673V33.32H200.573V31.68H207.573V28.7H202.633V22.94H212.553V20.64H202.573V19H214.593V24.6H204.693V27.04H215.113V28.7ZM233.977 32.98H217.877V31.32H233.977V32.98ZM231.877 19.68C231.877 24.4 231.577 27.74 231.097 30.08L229.077 29.82C229.517 28.04 229.817 24.18 229.817 21.3H219.737V19.68H231.877ZM249.842 30.68H247.802V17.76H249.842V30.68ZM250.262 35.06H238.062V29.46H240.102V33.42H250.262V35.06ZM244.842 23.44C244.842 25.98 243.002 27.8 240.282 27.8C237.562 27.8 235.682 25.98 235.682 23.46C235.682 20.92 237.542 19.08 240.282 19.08C243.002 19.08 244.842 20.9 244.842 23.44ZM242.802 23.44C242.802 21.88 241.842 20.78 240.282 20.78C238.762 20.78 237.742 21.92 237.742 23.44C237.742 24.9 238.762 26.06 240.282 26.06C241.842 26.06 242.802 24.9 242.802 23.44Z" fill="black"/>
</svg>
