<svg width="342" height="52" viewBox="0 0 342 52" fill="none" xmlns="http://www.w3.org/2000/svg">
<rect width="342" height="52" rx="12" fill="black"/>
<path d="M106.547 20.3138C106.704 20.3138 106.946 20.3323 107.274 20.3694C107.609 20.399 107.989 20.4805 108.414 20.6139C108.839 20.7473 109.271 20.9623 109.711 21.2587C110.151 21.5552 110.557 21.9702 110.93 22.5038C110.893 22.526 110.751 22.6261 110.505 22.8039C110.266 22.9818 109.994 23.2412 109.689 23.5821C109.383 23.9156 109.115 24.3418 108.884 24.8605C108.66 25.3719 108.548 25.9833 108.548 26.6948C108.548 27.51 108.69 28.1993 108.973 28.7625C109.264 29.3258 109.599 29.7815 109.98 30.1299C110.367 30.4782 110.71 30.7339 111.008 30.8969C111.314 31.0526 111.478 31.1341 111.5 31.1415C111.493 31.1711 111.437 31.3379 111.332 31.6417C111.228 31.9382 111.064 32.3236 110.84 32.7979C110.624 33.2648 110.341 33.7539 109.991 34.2653C109.67 34.7174 109.339 35.1509 108.996 35.5659C108.66 35.981 108.291 36.3182 107.889 36.5776C107.494 36.8444 107.047 36.9778 106.547 36.9778C106.167 36.9778 105.843 36.9333 105.575 36.8444C105.306 36.7554 105.049 36.6517 104.803 36.5331C104.565 36.4219 104.3 36.3219 104.009 36.2329C103.719 36.144 103.357 36.0995 102.925 36.0995C102.358 36.0995 101.885 36.1737 101.505 36.3219C101.132 36.4775 100.778 36.6294 100.443 36.7777C100.107 36.9259 99.7124 37 99.2578 37C98.5646 37 97.9534 36.7258 97.4242 36.1774C96.9025 35.6289 96.3658 34.9731 95.8143 34.2097C95.3894 33.602 95.0019 32.9016 94.6516 32.1086C94.3012 31.3156 94.0217 30.4745 93.813 29.5851C93.6043 28.6958 93.5 27.8065 93.5 26.9171C93.5 25.4942 93.772 24.2973 94.3161 23.3264C94.8602 22.3556 95.5571 21.6219 96.4068 21.1253C97.2565 20.6288 98.1398 20.3805 99.0565 20.3805C99.541 20.3805 99.9957 20.4583 100.42 20.6139C100.853 20.7696 101.255 20.9289 101.628 21.092C102.001 21.2476 102.34 21.3254 102.645 21.3254C102.936 21.3254 103.279 21.2439 103.674 21.0808C104.069 20.9104 104.505 20.7399 104.982 20.5695C105.466 20.399 105.988 20.3138 106.547 20.3138ZM105.765 18.5129C105.392 18.965 104.922 19.3392 104.356 19.6357C103.797 19.9321 103.268 20.0803 102.768 20.0803C102.664 20.0803 102.563 20.0692 102.466 20.047C102.459 20.0173 102.448 19.9655 102.433 19.8914C102.425 19.8172 102.422 19.7357 102.422 19.6468C102.422 19.0835 102.545 18.5351 102.791 18.0015C103.037 17.4679 103.32 17.0232 103.64 16.6675C104.035 16.2006 104.535 15.8115 105.139 15.5003C105.75 15.189 106.335 15.0222 106.894 15C106.916 15.126 106.927 15.2705 106.927 15.4336C106.927 16.0042 106.819 16.56 106.603 17.1011C106.387 17.6347 106.107 18.1053 105.765 18.5129Z" fill="white"/>
<path d="M126.74 33.16L131.7 19.46H133.78L138.7 33.16H136.54L135.22 29.44H129.98L128.68 33.16H126.74ZM132.54 22.06L130.54 27.8H134.62L132.6 22.06H132.54ZM140.242 36.16V22.96H142.142V23.78H142.222C142.842 23.2 143.902 22.76 145.142 22.76C147.362 22.76 149.302 23.98 149.302 27.74V28.02C149.302 31.8 147.502 33.22 144.702 33.22C143.562 33.22 142.742 32.92 142.202 32.62V36.16H140.242ZM144.462 31.68C146.222 31.68 147.242 30.88 147.242 28.28V27.86C147.242 25.2 146.282 24.42 144.562 24.42C143.482 24.42 142.622 24.76 142.202 25.08V31.04C142.622 31.36 143.482 31.68 144.462 31.68ZM151.355 36.16V22.96H153.255V23.78H153.335C153.955 23.2 155.015 22.76 156.255 22.76C158.475 22.76 160.415 23.98 160.415 27.74V28.02C160.415 31.8 158.615 33.22 155.815 33.22C154.675 33.22 153.855 32.92 153.315 32.62V36.16H151.355ZM155.575 31.68C157.335 31.68 158.355 30.88 158.355 28.28V27.86C158.355 25.2 157.395 24.42 155.675 24.42C154.595 24.42 153.735 24.76 153.315 25.08V31.04C153.735 31.36 154.595 31.68 155.575 31.68ZM162.528 33.16V18.56H164.488V33.16H162.528ZM171.555 33.34C168.255 33.34 166.615 31.38 166.615 28.18V27.92C166.615 24.42 168.715 22.76 171.175 22.76C174.055 22.76 175.395 24.42 175.395 27.64V28.6H168.635C168.775 30.94 169.915 31.72 171.915 31.72C173.255 31.72 174.135 31.4 175.075 30.98V32.36C174.435 32.82 173.255 33.34 171.555 33.34ZM171.095 24.32C170.015 24.32 168.795 24.88 168.635 27.16H173.335C173.335 25.1 172.575 24.32 171.095 24.32ZM191.21 28.7H185.71V31.68H192.77V33.32H176.67V31.68H183.67V28.7H178.73V22.94H188.65V20.64H178.67V19H190.69V24.6H180.79V27.04H191.21V28.7ZM213.769 28.7H208.269V31.68H215.329V33.32H199.229V31.68H206.229V28.7H201.289V22.94H211.209V20.64H201.229V19H213.249V24.6H203.349V27.04H213.769V28.7ZM232.634 32.98H216.534V31.32H232.634V32.98ZM230.534 19.68C230.534 24.4 230.234 27.74 229.754 30.08L227.734 29.82C228.174 28.04 228.474 24.18 228.474 21.3H218.394V19.68H230.534ZM248.498 30.68H246.458V17.76H248.498V30.68ZM248.918 35.06H236.718V29.46H238.758V33.42H248.918V35.06ZM243.498 23.44C243.498 25.98 241.658 27.8 238.938 27.8C236.218 27.8 234.338 25.98 234.338 23.46C234.338 20.92 236.198 19.08 238.938 19.08C241.658 19.08 243.498 20.9 243.498 23.44ZM241.458 23.44C241.458 21.88 240.498 20.78 238.938 20.78C237.418 20.78 236.398 21.92 236.398 23.44C236.398 24.9 237.418 26.06 238.938 26.06C240.498 26.06 241.458 24.9 241.458 23.44Z" fill="white"/>
</svg>
