<svg width="100" height="24" viewBox="0 0 100 24" fill="none" xmlns="http://www.w3.org/2000/svg">
<g clip-path="url(#clip0_504_2180)">
<path d="M23.313 23.6178C21.348 23.6178 20.3654 23.3969 20.3654 22.9552L19.67 9.67134L15.6294 23.1209C15.541 23.3858 14.7904 23.5183 13.3773 23.5183C11.9642 23.5183 11.2356 23.3969 11.1914 23.154L7.01839 9.53883L6.55472 22.7564C6.53263 23.0877 6.11313 23.3197 5.29619 23.4522C4.47925 23.5626 3.79478 23.6178 3.24279 23.6178C2.71288 23.6178 2.19402 23.5846 1.68619 23.5183C0.626371 23.3638 0.107503 23.0877 0.129582 22.6903L0.891325 1.15772C0.891325 0.627687 2.23817 0.362672 4.93187 0.362672C5.72674 0.362672 6.69824 0.428925 7.84636 0.561433C8.99451 0.671855 9.63481 0.903744 9.76728 1.2571L13.4766 11.6921L16.7223 1.22397C16.9211 0.649773 18.4445 0.362672 21.2928 0.362672C22.1097 0.362672 23.0812 0.428925 24.2073 0.561433C25.3554 0.671855 25.9295 0.88166 25.9295 1.19084L26.89 22.9221C26.89 23.165 26.4593 23.3417 25.5983 23.4522C24.7371 23.5626 23.9754 23.6178 23.313 23.6178ZM38.9528 23.9159C35.8617 23.9159 33.3337 22.9 31.3685 20.8682C29.4255 18.8364 28.4541 15.8772 28.4541 11.9902C28.4541 8.08125 29.4366 5.12191 31.4016 3.11221C33.3889 1.10251 35.9389 0.0976562 39.0523 0.0976562C42.1875 0.0976562 44.7156 1.09146 46.6366 3.07908C48.5574 5.04461 49.5179 8.03708 49.5179 12.0565C49.5179 16.0538 48.5353 19.0352 46.5703 21.0007C44.6052 22.9441 42.0661 23.9159 38.9528 23.9159ZM38.986 6.45802C37.9262 6.45802 37.0319 6.94389 36.3033 7.91561C35.5968 8.88733 35.2435 10.2566 35.2435 12.0233C35.2435 13.768 35.5857 15.1151 36.2701 16.0649C36.9546 16.9924 37.8489 17.4562 38.9528 17.4562C40.0789 17.4562 40.9842 16.9813 41.6686 16.0317C42.3751 15.0821 42.7284 13.7239 42.7284 11.9571C42.7284 10.1903 42.3642 8.83212 41.6355 7.88248C40.929 6.93284 40.0457 6.45802 38.986 6.45802ZM51.9783 6.4249C51.6029 6.4249 51.338 5.91695 51.1835 4.90106C51.1172 4.48146 51.084 4.01768 51.084 3.50974C51.084 3.00178 51.1392 2.47176 51.2496 1.91963C51.4484 0.903744 51.7796 0.395799 52.2432 0.395799H64.4973C65.8442 0.395799 66.7163 1.62149 67.1138 4.07289C67.202 4.60292 67.2463 4.9894 67.2463 5.23233L59.4964 16.9924H65.5573C65.5793 16.9924 65.6014 16.9924 65.6234 16.9924C66.1091 16.9924 66.4514 17.5223 66.6502 18.5825C66.7384 19.0904 66.7826 19.6205 66.7826 20.1726C66.7826 20.7246 66.7163 21.3099 66.5839 21.9284C66.341 23.0325 65.9657 23.5846 65.4578 23.5846H52.5744C52.3757 23.5846 52.0115 22.9221 51.4815 21.5971C50.9736 20.2499 50.7198 19.4106 50.7198 19.0794C50.7198 18.7482 50.753 18.5383 50.8191 18.45L58.569 6.4249H51.9783ZM71.965 17.8868V6.09363H69.6136C69.2381 6.09363 68.9732 5.61881 68.8187 4.66917C68.7524 4.20539 68.7192 3.73058 68.7192 3.24471C68.7192 2.75886 68.7524 2.28403 68.8187 1.82026C68.9732 0.870618 69.2381 0.395799 69.6136 0.395799H80.7416C81.1169 0.395799 81.3708 0.870618 81.5033 1.82026C81.5916 2.28403 81.6357 2.75886 81.6357 3.24471C81.6357 3.73058 81.5916 4.20539 81.5033 4.66917C81.3708 5.61881 81.1169 6.09363 80.7416 6.09363H78.5226V17.8868H80.8409C81.2163 17.8868 81.4812 18.3617 81.6357 19.3113C81.7241 19.775 81.7683 20.2499 81.7683 20.7357C81.7683 21.2215 81.7241 21.6964 81.6357 22.1602C81.4812 23.1098 81.2163 23.5846 80.8409 23.5846H69.6797C69.3044 23.5846 69.0505 23.1098 68.918 22.1602C68.8297 21.6964 68.7855 21.2215 68.7855 20.7357C68.7855 20.2499 68.8297 19.775 68.918 19.3113C69.0505 18.3617 69.3044 17.8868 69.6797 17.8868H71.965ZM86.859 23.6509C84.8499 23.6509 83.8452 23.4301 83.8452 22.9884V1.52212C83.8452 0.771237 84.1875 0.395799 84.872 0.395799H90.7009C93.9686 0.395799 96.3201 1.06938 97.7553 2.41654C99.2126 3.76371 99.9412 5.71819 99.9412 8.28001C99.9412 10.4001 99.2567 12.3436 97.8878 14.1103C97.2033 14.9937 96.1987 15.7004 94.8739 16.2305C93.5492 16.7605 92.0036 17.0256 90.2373 17.0256V22.9552C90.2373 23.2202 89.8177 23.4079 88.9787 23.5183C88.1618 23.6067 87.4552 23.6509 86.859 23.6509ZM90.2373 6.15988V11.3939H90.6678C91.4406 11.3939 92.0919 11.151 92.6219 10.6651C93.1517 10.1793 93.4167 9.49466 93.4167 8.61128C93.4167 7.7279 93.229 7.09849 92.8536 6.72304C92.5004 6.3476 91.86 6.15988 90.9327 6.15988H90.2373Z" fill="white"/>
</g>
<defs>
<clipPath id="clip0_504_2180">
<rect width="100" height="24" fill="white"/>
</clipPath>
</defs>
</svg>
