<svg width="24" height="24" viewBox="0 0 24 24" fill="none" xmlns="http://www.w3.org/2000/svg">
<path d="M2 12C2 11.701 2.10505 11.4465 2.31515 11.2364C2.53333 11.0182 2.78788 10.9091 3.07879 10.9091H10.9212V3.07879C10.9212 2.78788 11.0263 2.53737 11.2364 2.32727C11.4465 2.10909 11.701 2 12 2C12.299 2 12.5535 2.10909 12.7636 2.32727C12.9818 2.53737 13.0909 2.78788 13.0909 3.07879V10.9091H20.9212C21.2121 10.9091 21.4626 11.0182 21.6727 11.2364C21.8909 11.4465 22 11.701 22 12C22 12.299 21.8909 12.5535 21.6727 12.7636C21.4626 12.9737 21.2121 13.0788 20.9212 13.0788H13.0909V20.9212C13.0909 21.2121 12.9818 21.4626 12.7636 21.6727C12.5535 21.8909 12.299 22 12 22C11.701 22 11.4465 21.8909 11.2364 21.6727C11.0263 21.4626 10.9212 21.2121 10.9212 20.9212V13.0788H3.07879C2.78788 13.0788 2.53333 12.9737 2.31515 12.7636C2.10505 12.5535 2 12.299 2 12Z" fill="white"/>
</svg>
